<svg width="2424" height="343" viewBox="0 0 2424 343" fill="none" xmlns="http://www.w3.org/2000/svg">
<path d="M426.11 0L348.698 105.184H770.605C791.94 105.184 791.674 113.218 781.246 127.423C770.658 141.788 752.942 166.635 742.141 181.266C736.661 188.661 726.765 202.122 759.539 202.122H932.079L983.208 132.637C1014.92 89.5954 985.975 0.0531747 872.597 0.0531747L426.11 0Z" fill="#D80613"/>
<path d="M317.361 342.686L472.876 131.36H665.847C687.182 131.36 686.916 139.447 676.488 153.6L637.117 207.229C631.637 214.625 621.741 228.085 654.515 228.085H912.979C891.538 257.56 821.734 342.686 696.599 342.686H317.361ZM1207.89 228.032L1123.56 342.686H901.115L985.443 228.032H1207.89ZM1548.61 202.068H1004.6L1153.35 0H1375.69L1290.46 115.878H1389.69L1475.03 0H1697.36L1548.61 202.068ZM1529.51 228.032L1445.18 342.686H1222.84L1307.17 228.032H1529.51ZM0 273.255H327.63L309.753 297.57H0V273.255ZM0 228.032H360.935L343.006 252.346H0V228.032ZM0 318.479H294.377L276.554 342.686H0V318.479ZM2423.07 297.57H2096.61L2114.54 273.255H2423.07V297.57ZM2423.07 342.686H2063.46L2081.23 318.479H2423.07V342.686ZM2147.79 228.032H2423.07V252.399H2129.91L2147.79 228.032ZM2005.31 0L1856.55 202.068H1620.91L1769.77 0H2005.31ZM1601.86 228.032C1601.86 228.032 1585.64 250.271 1577.71 260.912C1549.83 298.687 1574.46 342.633 1665.6 342.633H2022.71L2107.03 228.032H1601.86Z" fill="#D80613"/>
</svg>
