<svg width="1588" height="350" viewBox="0 0 1588 350" fill="none" xmlns="http://www.w3.org/2000/svg">
<path d="M393.322 258.634C373.561 258.634 357.223 254.044 344.308 244.863C331.549 235.527 324.624 221.912 323.535 204.018H378.618C379.396 213.51 383.597 218.255 391.221 218.255C394.022 218.255 396.356 217.633 398.223 216.388C400.246 214.988 401.258 212.887 401.258 210.086C401.258 206.196 399.157 203.084 394.956 200.75C390.755 198.261 384.219 195.46 375.35 192.348C364.769 188.614 355.978 184.957 348.976 181.378C342.129 177.799 336.217 172.587 331.237 165.74C326.258 158.894 323.846 150.102 324.002 139.366C324.002 128.63 326.725 119.527 332.171 112.058C337.773 104.434 345.319 98.6765 354.811 94.7865C364.458 90.8965 375.272 88.9515 387.254 88.9515C407.482 88.9515 423.509 93.6195 435.334 102.956C447.315 112.292 453.617 125.44 454.24 142.4H398.457C398.301 137.732 397.134 134.387 394.956 132.364C392.777 130.341 390.132 129.33 387.02 129.33C384.842 129.33 383.052 130.108 381.652 131.664C380.252 133.064 379.551 135.087 379.551 137.732C379.551 141.467 381.574 144.579 385.62 147.068C389.821 149.402 396.434 152.281 405.459 155.704C415.884 159.594 424.442 163.329 431.133 166.907C437.979 170.486 443.892 175.465 448.871 181.845C453.851 188.225 456.34 196.238 456.34 205.885C456.34 215.999 453.851 225.102 448.871 233.193C443.892 241.129 436.657 247.353 427.165 251.865C417.674 256.378 406.392 258.634 393.322 258.634ZM580.509 232.026H525.427L517.258 257H462.875L523.326 91.7523H583.077L643.294 257H588.678L580.509 232.026ZM567.906 193.048L552.968 147.068L538.031 193.048H567.906ZM771.767 91.7523V132.831H706.881V155.704H753.562V194.682H706.881V257H655.066V91.7523H771.767ZM841.132 91.7523V257H789.317V91.7523H841.132ZM947.625 257L916.583 197.716H916.349V257H864.534V91.7523H941.557C954.938 91.7523 966.375 94.1641 975.867 98.9877C985.358 103.656 992.438 110.113 997.106 118.36C1001.93 126.451 1004.34 135.632 1004.34 145.901C1004.34 156.949 1001.23 166.752 995.005 175.31C988.937 183.868 980.146 190.014 968.631 193.748L1004.57 257H947.625ZM916.349 163.173H936.889C941.868 163.173 945.602 162.084 948.092 159.905C950.581 157.571 951.826 153.992 951.826 149.169C951.826 144.812 950.504 141.389 947.858 138.899C945.369 136.41 941.712 135.165 936.889 135.165H916.349V163.173ZM1072.71 91.7523V257H1020.89V91.7523H1072.71ZM1160.76 258.634C1141 258.634 1124.66 254.044 1111.75 244.863C1098.99 235.527 1092.07 221.912 1090.98 204.018H1146.06C1146.84 213.51 1151.04 218.255 1158.66 218.255C1161.46 218.255 1163.8 217.633 1165.67 216.388C1167.69 214.988 1168.7 212.887 1168.7 210.086C1168.7 206.196 1166.6 203.084 1162.4 200.75C1158.2 198.261 1151.66 195.46 1142.79 192.348C1132.21 188.614 1123.42 184.957 1116.42 181.378C1109.57 177.799 1103.66 172.587 1098.68 165.74C1093.7 158.894 1091.29 150.102 1091.44 139.366C1091.44 128.63 1094.17 119.527 1099.61 112.058C1105.21 104.434 1112.76 98.6765 1122.25 94.7865C1131.9 90.8965 1142.71 88.9515 1154.7 88.9515C1174.92 88.9515 1190.95 93.6195 1202.78 102.956C1214.76 112.292 1221.06 125.44 1221.68 142.4H1165.9C1165.74 137.732 1164.58 134.387 1162.4 132.364C1160.22 130.341 1157.57 129.33 1154.46 129.33C1152.28 129.33 1150.49 130.108 1149.09 131.664C1147.69 133.064 1146.99 135.087 1146.99 137.732C1146.99 141.467 1149.02 144.579 1153.06 147.068C1157.26 149.402 1163.88 152.281 1172.9 155.704C1183.33 159.594 1191.88 163.329 1198.57 166.907C1205.42 170.486 1211.33 175.465 1216.31 181.845C1221.29 188.225 1223.78 196.238 1223.78 205.885C1223.78 215.999 1221.29 225.102 1216.31 233.193C1211.33 241.129 1204.1 247.353 1194.61 251.865C1185.12 256.378 1173.83 258.634 1160.76 258.634ZM1394.86 91.7523V257H1343.05V192.581H1293.8V257H1241.99V91.7523H1293.8V151.269H1343.05V91.7523H1394.86ZM1524.14 232.026H1469.06L1460.89 257H1406.51L1466.96 91.7523H1526.71L1586.93 257H1532.31L1524.14 232.026ZM1511.54 193.048L1496.6 147.068L1481.66 193.048H1511.54Z" fill="white"/>
<path fill-rule="evenodd" clip-rule="evenodd" d="M54.8082 67.9174C48.0964 67.9174 42.2908 72.5922 40.8591 79.1495L23.4733 158.779L92.0775 176.636L123.843 144.932C128.637 140.147 136.369 140.155 141.154 144.949C145.938 149.742 145.931 157.474 141.137 162.259L109.371 193.963L129.49 271.878L119.266 282.083H198.882C205.586 282.083 211.386 277.42 212.827 270.873L253.661 85.2628C255.621 76.3541 248.838 67.9174 239.717 67.9174H54.8082ZM117.219 282.083L83.3805 219.903L51.6146 251.607L57.3622 274.693L49.9583 282.083H117.219ZM47.9462 282.083L31.4166 254.473L5.92666 239.145L0.334231 264.76C-1.60952 273.662 5.17088 282.083 14.2833 282.083H47.9462ZM7.41948 232.308L11.2467 228.488L34.3212 234.281L66.0872 202.576L19.4748 177.093L7.41948 232.308Z" fill="#F66B0E"/>
</svg>
