<?xml version="1.0" standalone="no"?>
<!DOCTYPE svg PUBLIC "-//W3C//DTD SVG 20010904//EN"
 "http://www.w3.org/TR/2001/REC-SVG-20010904/DTD/svg10.dtd">
<svg version="1.0" xmlns="http://www.w3.org/2000/svg"
 width="301.000000pt" height="301.000000pt" viewBox="0 0 301.000000 301.000000"
 preserveAspectRatio="xMidYMid meet">

<g transform="translate(0.000000,301.000000) scale(0.100000,-0.100000)"
fill="#000000" stroke="none">
<path d="M1272 2260 c-237 -30 -406 -143 -488 -327 -21 -47 -28 -53 -66 -63
-68 -17 -126 -40 -150 -60 -21 -17 -23 -28 -26 -128 l-4 -110 -36 -5 c-21 -3
-44 -8 -53 -12 -14 -5 -17 3 -21 51 -5 63 -23 84 -68 84 -47 0 -60 -26 -60
-124 0 -80 -2 -91 -29 -130 -35 -50 -57 -118 -66 -199 -6 -51 -10 -60 -33 -70
-96 -42 -133 -102 -143 -236 -4 -53 -5 -113 -2 -134 8 -54 42 -99 80 -109 20
-5 38 -19 47 -36 58 -111 215 -124 282 -23 l27 41 262 0 262 0 22 -60 c31 -85
58 -103 144 -97 38 2 73 9 79 15 8 8 5 9 -8 6 -49 -13 -108 88 -106 181 1 53
57 227 80 248 25 22 34 21 60 -6 45 -48 52 -184 15 -303 -12 -38 -13 -56 -5
-70 10 -17 13 -14 34 31 34 73 32 230 -3 332 -14 39 -21 69 -17 67 13 -8 40
-65 59 -124 10 -30 18 -45 18 -34 1 32 -35 144 -59 182 -24 39 -63 43 -103 11
-26 -20 -90 -141 -122 -232 -28 -78 -35 -80 -365 -90 -193 -6 -329 -6 -423 2
-178 14 -206 28 -207 107 0 47 11 54 90 54 40 0 47 -4 62 -30 17 -29 19 -30
93 -30 76 0 77 0 88 30 15 41 54 42 59 3 3 -28 4 -28 81 -31 82 -3 107 6 107
38 0 22 66 30 264 31 124 1 136 3 103 13 l-38 12 30 28 c39 37 54 78 37 101
-17 24 -96 36 -158 25 -63 -12 -115 -45 -159 -100 -39 -48 -65 -54 -54 -12 11
47 53 109 98 145 75 62 123 80 218 85 103 5 157 -10 251 -69 l63 -40 -52 50
c-91 86 -227 119 -352 87 -75 -19 -118 -44 -184 -105 l-48 -44 3 134 3 134 94
47 c51 25 141 65 200 87 69 27 92 39 66 35 -73 -11 -159 -35 -269 -76 -98 -37
-112 -40 -140 -29 -47 18 -194 25 -255 12 -30 -6 -57 -9 -60 -5 -13 13 76 75
138 96 61 20 92 22 386 26 303 5 317 6 260 19 -38 9 -147 16 -303 20 l-243 5
3 77 3 76 250 5 250 5 -190 8 c-104 5 -215 11 -245 15 -52 7 -54 9 -31 21 16
9 100 14 296 18 337 7 324 11 326 -105 l1 -77 14 75 c8 41 17 85 19 97 6 28
43 47 116 62 88 18 91 15 85 -98 -10 -181 -17 -229 -33 -235 -11 -5 -13 -2 -8
11 4 10 9 45 11 78 3 59 3 59 -5 14 -5 -26 -14 -56 -20 -67 -12 -22 -66 -42
-115 -42 l-28 0 4 90 c5 108 19 130 82 130 30 0 37 3 26 10 -23 15 -77 12 -94
-5 -22 -23 -36 -81 -36 -153 0 -55 -3 -65 -20 -69 -50 -13 -10 -23 94 -23
l114 0 11 -31 c6 -19 11 -104 11 -202 0 -94 2 -168 5 -165 5 5 34 276 35 319
0 10 11 20 25 23 34 9 45 41 45 135 0 81 -10 105 -45 115 -11 2 7 2 39 -1 58
-6 254 -46 259 -54 2 -2 1 -140 -1 -306 l-4 -301 -198 1 c-109 1 -202 -2 -207
-6 -4 -5 -10 -81 -11 -170 -4 -183 -3 -187 74 -187 38 0 239 31 299 46 21 5
25 3 25 -15 0 -12 11 -33 25 -46 20 -21 33 -25 87 -25 35 0 73 3 85 6 20 6 21
8 9 28 -8 11 -17 36 -21 54 -4 22 -12 32 -20 28 -26 -10 -136 -29 -140 -24 -3
3 26 10 64 17 39 7 74 18 79 24 5 7 12 46 15 88 6 91 27 139 60 139 13 0 29
-6 36 -12 10 -11 12 -9 9 7 -3 17 3 20 40 23 41 3 43 2 32 -17 -6 -11 -17 -78
-25 -147 -15 -126 -29 -174 -52 -182 -8 -2 -6 11 7 40 11 24 19 61 19 83 l-1
40 -12 -51 c-7 -28 -22 -68 -34 -88 -12 -21 -22 -38 -22 -40 0 -9 129 9 148
20 l22 15 -27 23 c-25 22 -27 30 -31 120 -4 82 -2 100 13 116 10 11 24 20 32
20 19 0 16 17 -4 30 -12 8 -13 10 -3 7 28 -6 50 -68 50 -138 0 -84 10 -90 140
-87 l95 3 25 52 25 53 58 0 57 0 0 33 c0 17 3 42 6 55 l6 22 -208 0 c-168 1
-213 4 -228 15 -14 11 -45 15 -115 14 -53 -1 -135 2 -184 6 l-87 7 6 447 c6
377 5 448 -7 457 -8 7 -42 22 -76 34 -35 13 -63 28 -63 35 0 21 55 89 84 105
27 14 29 13 61 -22 19 -20 40 -56 47 -80 16 -53 16 -380 0 -588 -6 -80 -14
-196 -18 -257 l-6 -113 268 -2 c227 -2 247 -3 129 -8 -77 -3 -119 -7 -94 -8
25 -1 54 -9 65 -17 15 -12 64 -14 264 -15 140 0 239 4 231 9 -15 10 -5 18 37
31 17 5 -32 9 -133 11 -158 3 -157 3 72 8 127 3 235 10 240 14 4 5 8 144 8
310 l0 302 -130 53 c-184 75 -447 173 -675 252 l-195 68 -23 43 c-12 24 -35
54 -50 67 -80 66 -397 116 -590 92z m-42 -101 c-54 -69 -51 -83 8 -28 72 70
90 79 154 79 l58 0 -30 -53 c-16 -30 -30 -57 -30 -61 0 -5 27 17 61 48 33 31
65 56 70 56 19 0 161 -31 186 -41 l25 -9 -45 -43 c-32 -30 -48 -55 -56 -87
-19 -74 -42 -119 -78 -150 -19 -17 -37 -30 -41 -30 -4 0 -13 14 -19 31 l-12
30 -323 -6 c-178 -3 -333 -8 -345 -11 -30 -6 -29 3 5 57 80 125 303 266 425
268 l27 1 -40 -51z m543 -212 l47 -19 0 -134 c0 -102 -3 -134 -13 -134 -7 0
-66 11 -132 25 -66 14 -132 25 -147 25 -42 0 -37 33 7 49 44 16 79 62 105 137
11 32 22 65 25 72 5 15 38 9 108 -21z m488 -78 c162 -49 376 -117 477 -150
l182 -60 0 -163 0 -163 -107 -6 c-58 -4 -183 -7 -277 -7 -94 0 -177 -4 -184
-8 -7 -5 92 -14 220 -20 128 -7 259 -15 291 -19 l57 -6 0 -95 0 -95 -347 7
c-315 6 -672 22 -679 29 -2 2 -1 20 3 40 l6 37 76 0 c108 0 121 15 20 24 -45
4 -85 8 -88 10 -8 6 13 283 22 292 4 4 170 0 368 -10 198 -10 362 -16 364 -14
2 2 -150 23 -338 47 -441 56 -397 45 -397 93 l0 40 43 -6 c86 -11 479 -47 488
-44 6 2 -104 25 -243 52 -139 27 -259 51 -265 53 -8 3 -13 24 -13 55 0 42 2
49 18 44 41 -12 615 -126 619 -123 2 2 -141 48 -317 102 l-320 99 0 28 c0 17
5 28 13 28 8 0 146 -41 308 -91z m-991 1 c-23 -15 -77 -19 -325 -24 -172 -5
-225 -3 -211 5 25 15 174 26 381 27 111 1 165 -2 155 -8z m-667 -505 c31 -13
37 -50 37 -241 l0 -184 -189 0 -188 0 -7 31 c-9 45 -7 246 3 298 11 56 33 77
101 96 56 15 205 15 243 0z m-399 -247 c3 -13 8 -51 11 -86 3 -35 9 -70 12
-78 4 -11 -8 -14 -63 -13 -38 1 -57 4 -42 6 42 7 52 26 33 63 -9 17 -23 34
-31 37 -23 9 -16 29 21 62 42 37 53 38 59 9z m779 -79 c21 -6 37 -16 37 -25 0
-8 -17 -33 -37 -55 l-38 -39 -108 6 c-90 6 -107 10 -105 23 5 23 80 72 135 87
60 16 69 16 116 3z m-853 -30 c18 -33 12 -49 -19 -49 -37 0 -40 6 -29 47 9 35
30 36 48 2z m1796 -17 c15 -9 23 -197 9 -210 -10 -10 -166 -32 -222 -32 l-31
0 -4 118 c-3 64 -3 120 -1 125 5 9 234 9 249 -1z m-281 -74 c4 -40 5 -95 3
-123 l-3 -50 -79 -7 c-114 -10 -116 -8 -116 110 0 134 6 142 110 142 l78 0 7
-72z m-1245 -48 c0 -18 -7 -20 -68 -20 -63 0 -92 10 -92 32 0 4 36 8 80 8 73
0 80 -2 80 -20z m238 3 c-2 -13 -17 -20 -53 -24 -65 -9 -95 -2 -95 22 0 17 8
19 76 19 66 0 75 -2 72 -17z"/>
<path d="M300 1310 c0 -5 16 -10 35 -10 19 0 35 5 35 10 0 6 -16 10 -35 10
-19 0 -35 -4 -35 -10z"/>
<path d="M420 1310 c0 -5 16 -10 35 -10 19 0 35 5 35 10 0 6 -16 10 -35 10
-19 0 -35 -4 -35 -10z"/>
<path d="M540 1310 c0 -5 16 -10 35 -10 19 0 35 5 35 10 0 6 -16 10 -35 10
-19 0 -35 -4 -35 -10z"/>
<path d="M300 1270 c0 -5 16 -10 35 -10 19 0 35 5 35 10 0 6 -16 10 -35 10
-19 0 -35 -4 -35 -10z"/>
<path d="M420 1270 c0 -5 16 -10 35 -10 19 0 35 5 35 10 0 6 -16 10 -35 10
-19 0 -35 -4 -35 -10z"/>
<path d="M540 1270 c0 -5 16 -10 35 -10 19 0 35 5 35 10 0 6 -16 10 -35 10
-19 0 -35 -4 -35 -10z"/>
<path d="M300 1230 c0 -5 16 -10 35 -10 19 0 35 5 35 10 0 6 -16 10 -35 10
-19 0 -35 -4 -35 -10z"/>
<path d="M420 1230 c0 -5 16 -10 35 -10 19 0 35 5 35 10 0 6 -16 10 -35 10
-19 0 -35 -4 -35 -10z"/>
<path d="M540 1230 c0 -5 16 -10 35 -10 19 0 35 5 35 10 0 6 -16 10 -35 10
-19 0 -35 -4 -35 -10z"/>
<path d="M300 1190 c0 -5 16 -10 35 -10 19 0 35 5 35 10 0 6 -16 10 -35 10
-19 0 -35 -4 -35 -10z"/>
<path d="M420 1190 c0 -5 16 -10 35 -10 19 0 35 5 35 10 0 6 -16 10 -35 10
-19 0 -35 -4 -35 -10z"/>
<path d="M540 1190 c0 -5 16 -10 35 -10 19 0 35 5 35 10 0 6 -16 10 -35 10
-19 0 -35 -4 -35 -10z"/>
<path d="M300 1150 c0 -5 16 -10 35 -10 19 0 35 5 35 10 0 6 -16 10 -35 10
-19 0 -35 -4 -35 -10z"/>
<path d="M420 1150 c0 -5 16 -10 35 -10 19 0 35 5 35 10 0 6 -16 10 -35 10
-19 0 -35 -4 -35 -10z"/>
<path d="M540 1150 c0 -5 16 -10 35 -10 19 0 35 5 35 10 0 6 -16 10 -35 10
-19 0 -35 -4 -35 -10z"/>
<path d="M305 1110 c3 -5 17 -10 30 -10 13 0 27 5 30 10 4 6 -8 10 -30 10 -22
0 -34 -4 -30 -10z"/>
<path d="M425 1110 c3 -5 17 -10 30 -10 13 0 27 5 30 10 4 6 -8 10 -30 10 -22
0 -34 -4 -30 -10z"/>
<path d="M545 1110 c3 -5 17 -10 30 -10 13 0 27 5 30 10 4 6 -8 10 -30 10 -22
0 -34 -4 -30 -10z"/>
<path d="M305 1080 c-4 -6 8 -10 30 -10 22 0 34 4 30 10 -3 6 -17 10 -30 10
-13 0 -27 -4 -30 -10z"/>
<path d="M425 1080 c-4 -6 8 -10 30 -10 22 0 34 4 30 10 -3 6 -17 10 -30 10
-13 0 -27 -4 -30 -10z"/>
<path d="M545 1080 c-4 -6 8 -10 30 -10 22 0 34 4 30 10 -3 6 -17 10 -30 10
-13 0 -27 -4 -30 -10z"/>
<path d="M300 1040 c0 -5 16 -10 35 -10 19 0 35 5 35 10 0 6 -16 10 -35 10
-19 0 -35 -4 -35 -10z"/>
<path d="M420 1040 c0 -5 16 -10 35 -10 19 0 35 5 35 10 0 6 -16 10 -35 10
-19 0 -35 -4 -35 -10z"/>
<path d="M540 1040 c0 -5 16 -10 35 -10 19 0 35 5 35 10 0 6 -16 10 -35 10
-19 0 -35 -4 -35 -10z"/>
<path d="M300 1000 c0 -5 16 -10 35 -10 19 0 35 5 35 10 0 6 -16 10 -35 10
-19 0 -35 -4 -35 -10z"/>
<path d="M420 1000 c0 -5 16 -10 35 -10 19 0 35 5 35 10 0 6 -16 10 -35 10
-19 0 -35 -4 -35 -10z"/>
<path d="M540 1000 c0 -5 16 -10 35 -10 19 0 35 5 35 10 0 6 -16 10 -35 10
-19 0 -35 -4 -35 -10z"/>
<path d="M1213 1322 c2 -107 4 -115 26 -133 16 -14 38 -19 75 -18 l51 1 -55
11 c-68 15 -75 27 -88 157 l-10 95 1 -113z"/>
<path d="M2790 1013 c19 -3 41 -9 47 -15 10 -8 13 -6 13 6 0 13 -10 16 -47 14
-41 -1 -43 -2 -13 -5z"/>
<path d="M2877 1014 c7 -3 9 -12 6 -20 -3 -8 1 -14 11 -14 9 0 18 -12 22 -27
10 -46 12 -49 13 -16 1 46 -18 83 -43 82 -12 0 -16 -3 -9 -5z"/>
<path d="M2786 944 c-9 -23 -7 -117 3 -132 4 -7 7 22 7 68 -1 44 -2 80 -2 80
-1 0 -5 -7 -8 -16z"/>
<path d="M2814 906 c-8 -32 -2 -69 12 -73 14 -5 23 37 16 72 -6 32 -20 32 -28
1z"/>
<path d="M2887 924 c-4 -4 -7 -25 -7 -46 0 -49 23 -47 28 2 3 32 -8 56 -21 44z"/>
<path d="M2701 897 c-17 -31 -29 -34 -47 -9 -12 15 -13 13 -14 -18 0 -48 18
-108 35 -118 8 -4 32 -6 54 -4 l40 4 -21 28 c-12 17 -23 51 -27 86 -6 56 -6
57 -20 31z"/>
<path d="M2021 891 c-14 -25 -14 -121 -1 -141 24 -35 57 66 42 125 -10 36 -27
43 -41 16z"/>
<path d="M2159 868 c-19 -71 18 -145 41 -83 13 34 13 81 0 106 -16 30 -28 23
-41 -23z"/>
<path d="M1191 873 c-34 -74 -19 -233 22 -241 40 -8 67 165 38 241 -14 35 -44
35 -60 0z"/>
<path d="M2922 850 c0 -19 2 -27 5 -17 2 9 2 25 0 35 -3 9 -5 1 -5 -18z"/>
<path d="M2851 791 c-15 -28 -14 -31 14 -31 28 0 30 7 10 33 -13 18 -14 18
-24 -2z"/>
<path d="M2222 760 c0 -14 2 -19 5 -12 2 6 2 18 0 25 -3 6 -5 1 -5 -13z"/>
</g>
</svg>
