<svg width="254" height="216" viewBox="0 0 254 216" fill="none" xmlns="http://www.w3.org/2000/svg">
<path fill-rule="evenodd" clip-rule="evenodd" d="M54.8082 0.917301C48.0965 0.917301 42.2908 5.59214 40.8591 12.1494L23.4734 91.7789L92.0776 109.636L123.843 77.9317C128.637 73.1472 136.369 73.1547 141.154 77.9484C145.938 82.7422 145.931 90.4741 141.137 95.2586L109.371 126.963L129.491 204.878L119.266 215.083H198.882C205.586 215.083 211.386 210.419 212.827 203.873L253.661 18.2627C255.621 9.35404 248.838 0.917301 239.717 0.917301H54.8082ZM117.219 215.083L83.3806 152.903L51.6146 184.607L57.3623 207.693L49.9584 215.083H117.219ZM47.9462 215.083L31.4167 187.473L5.92672 172.145L0.334297 197.759C-1.60946 206.662 5.17094 215.083 14.2834 215.083H47.9462ZM7.41955 165.308L11.2467 161.488L34.3213 167.281L66.0872 135.576L19.4749 110.093L7.41955 165.308Z" fill="#F66B0E"/>
</svg>
