<svg width="2280" height="1470" viewBox="0 0 2280 1470" fill="none" xmlns="http://www.w3.org/2000/svg">
<path fill-rule="evenodd" clip-rule="evenodd" d="M0 1421.58C0 1421.58 25.4856 1349.63 37.4697 1282.18L71.9563 1277.66C71.9563 1277.66 85.4578 1390.09 212.86 1390.09C340.275 1390.09 358.264 1319.63 358.264 1276.17C358.264 1232.71 293.804 1186.21 191.875 1148.76C89.9453 1111.29 8.98805 1046.83 8.98805 920.905C8.98805 795.008 118.414 693.065 286.308 693.065C286.308 693.065 352.259 690.069 433.216 711.054H1080.78C1080.78 711.054 1067.3 760.521 1068.8 827.99C1068.8 827.99 974.354 796.499 840.947 820.493V1453.07H659.551V817.471C659.551 817.471 580.112 805.487 446.692 818.963C446.692 818.963 377.744 772.505 298.292 772.505C218.839 772.505 161.876 796.499 161.876 866.938C161.876 937.377 263.805 970.372 332.752 1000.36C401.713 1030.33 520.126 1085.8 520.126 1225.2C520.126 1364.6 392.712 1469.53 209.838 1469.53C61.4637 1469.53 0 1421.58 0 1421.58ZM2029.64 1081.3C2218.5 1048.32 2200.53 872.956 2200.53 872.956C2200.53 703.558 2005.66 711.067 2005.66 711.067H1646.84V1426.43L1365.02 711.054H1231.62L883.851 1453.07H1012.76L1111.47 1229.72H1352.67L1435.48 1453.07H1845.27V1115.78L2045.57 1453.07H2279.4C2161.92 1303.15 2029.64 1081.3 2029.64 1081.3ZM506.664 613.613H0C0 613.613 140.748 424.345 689.551 319.808C1193.21 223.871 1567.95 244.856 1567.95 244.856V265.841C1567.95 265.841 1100.26 274.829 845.434 361.779C590.604 448.728 554.626 532.668 506.664 613.613ZM1945.69 0L2023.97 240.862H2277.23L2072.35 389.741L2150.59 640.317L1945.69 481.749L1740.82 640.33L1819.06 389.754L1614.15 240.887L1867.41 240.874L1945.69 0Z" fill="black"/>
</svg>
